<?xml version="1.0" encoding="UTF-8" standalone="no"?>
<svg xmlns:xlink="http://www.w3.org/1999/xlink" height="133.75px" width="86.5px" xmlns="http://www.w3.org/2000/svg">
  <g transform="matrix(1.0, 0.0, 0.0, 1.0, 43.25, 66.85)">
    <path d="M42.75 -58.7 L42.75 58.8 Q42.75 61.95 40.55 64.2 38.3 66.4 35.15 66.4 L-35.1 66.4 Q-38.25 66.4 -40.5 64.2 -42.75 61.95 -42.75 58.8 L-42.75 -58.7 Q-42.75 -61.9 -40.5 -64.1 -38.25 -66.35 -35.1 -66.35 L35.15 -66.35 Q38.3 -66.35 40.55 -64.1 42.75 -61.9 42.75 -58.7" fill="#ffffff" fill-rule="evenodd" stroke="none"/>
    <path d="M42.75 -58.7 L42.75 58.8 Q42.75 61.95 40.55 64.2 38.3 66.4 35.15 66.4 L-35.1 66.4 Q-38.25 66.4 -40.5 64.2 -42.75 61.95 -42.75 58.8 L-42.75 -58.7 Q-42.75 -61.9 -40.5 -64.1 -38.25 -66.35 -35.1 -66.35 L35.15 -66.35 Q38.3 -66.35 40.55 -64.1 42.75 -61.9 42.75 -58.7 Z" fill="none" stroke="#666666" stroke-linecap="round" stroke-linejoin="round" stroke-width="1.0"/>
  </g>
</svg>
