<?xml version="1.0" encoding="UTF-8" standalone="no"?>
<svg xmlns:xlink="http://www.w3.org/1999/xlink" height="121.6px" width="74.75px" xmlns="http://www.w3.org/2000/svg">
  <g transform="matrix(1.0, 0.0, 0.0, 1.0, 37.35, 60.75)">
    <path d="M10.0 -60.25 L32.1 -60.25 Q34.0 -60.3 35.35 -58.95 36.7 -57.6 36.7 -55.65 L36.7 -15.05 10.0 -60.25 M8.7 20.05 L-2.2 21.15 -2.2 -10.35 -9.95 -6.55 -13.8 -13.2 8.7 -27.2 8.7 20.05 M-9.95 60.35 L-32.0 60.35 Q-33.95 60.3 -35.3 59.0 -36.65 57.6 -36.6 55.75 L-36.6 15.1 -9.95 60.35" fill="#27388b" fill-rule="evenodd" stroke="none"/>
    <path d="M31.7 37.25 L31.7 52.6 35.55 50.75 37.4 54.0 26.45 60.85 26.45 37.8 31.7 37.25 M-35.45 -50.7 L-37.35 -53.95 -26.35 -60.75 -26.35 -37.75 -31.65 -37.25 -31.65 -52.5 -35.45 -50.7" fill="#000000" fill-rule="evenodd" stroke="none"/>
  </g>
</svg>
