<?xml version="1.0" encoding="UTF-8" standalone="no"?>
<svg xmlns:xlink="http://www.w3.org/1999/xlink" height="121.2px" width="73.2px" xmlns="http://www.w3.org/2000/svg">
  <g transform="matrix(1.0, 0.0, 0.0, 1.0, 36.6, 60.6)">
    <path d="M32.05 -60.3 Q33.9 -60.3 35.25 -58.95 36.6 -57.6 36.6 -55.7 L36.6 -15.05 10.0 -60.3 32.05 -60.3 M12.45 -16.4 Q9.2 -16.45 7.65 -12.95 6.1 -9.55 6.1 -3.1 6.1 3.4 7.65 6.75 9.15 10.2 12.45 10.25 15.65 10.2 17.25 6.75 18.75 3.4 18.75 -3.1 18.75 -9.55 17.25 -12.95 15.65 -16.45 12.45 -16.4 M25.35 -20.85 Q30.1 -14.45 30.2 -3.1 30.2 8.25 25.4 14.65 20.55 21.05 12.45 21.05 4.25 21.05 -0.55 14.65 -5.35 8.3 -5.3 -3.1 -5.35 -14.4 -0.55 -20.85 4.25 -27.25 12.45 -27.25 20.55 -27.25 25.35 -20.85 M-30.85 -13.25 L-8.45 -27.25 -8.45 20.0 -19.25 21.05 -19.25 -10.35 -27.05 -6.6 -30.85 -13.25 M-32.05 60.3 Q-33.95 60.3 -35.25 58.9 -36.6 57.55 -36.6 55.65 L-36.6 15.0 -10.0 60.3 -32.05 60.3" fill="#d41389" fill-rule="evenodd" stroke="none"/>
    <path d="M20.0 40.05 Q22.3 43.15 22.3 48.75 22.3 54.25 20.0 57.4 17.65 60.6 13.65 60.6 9.7 60.6 7.35 57.4 5.0 54.25 5.0 48.75 5.0 43.15 7.35 40.05 9.65 36.95 13.65 36.95 17.7 36.95 20.0 40.05 M11.35 43.9 Q10.6 45.45 10.6 48.75 10.6 51.9 11.35 53.55 12.1 55.2 13.65 55.2 15.25 55.2 16.0 53.55 16.7 51.85 16.75 48.75 16.7 45.5 16.0 43.9 15.25 42.25 13.65 42.25 12.1 42.25 11.35 43.9 M29.1 36.95 L29.1 52.3 32.95 50.45 34.8 53.7 Q29.3 57.1 23.85 60.6 L23.85 37.5 29.1 36.95 M-7.35 -57.45 Q-5.0 -54.3 -5.0 -48.8 -5.0 -43.2 -7.35 -40.1 -9.75 -37.0 -13.65 -37.0 -17.65 -37.0 -20.0 -40.1 -22.35 -43.25 -22.35 -48.8 -22.35 -54.35 -20.0 -57.45 -17.65 -60.6 -13.65 -60.6 -9.75 -60.6 -7.35 -57.45 M-13.65 -55.3 Q-15.25 -55.3 -16.0 -53.6 -16.75 -52.0 -16.75 -48.8 -16.75 -45.65 -16.0 -43.95 -15.25 -42.3 -13.65 -42.3 -12.15 -42.3 -11.35 -43.95 -10.6 -45.6 -10.6 -48.8 -10.6 -52.05 -11.35 -53.6 -12.1 -55.3 -13.65 -55.3 M-23.85 -60.6 L-23.85 -37.55 -29.1 -37.0 -29.1 -52.35 -32.95 -50.5 -34.8 -53.75 -23.85 -60.6" fill="#000000" fill-rule="evenodd" stroke="none"/>
  </g>
</svg>
