<?xml version="1.0" encoding="UTF-8" standalone="no"?>
<svg xmlns:xlink="http://www.w3.org/1999/xlink" height="121.85px" width="73.6px" xmlns="http://www.w3.org/2000/svg">
  <g transform="matrix(1.0, 0.0, 0.0, 1.0, 36.8, 60.9)">
    <path d="M32.2 -60.55 Q34.1 -60.55 35.45 -59.2 36.75 -57.85 36.8 -55.95 L36.8 -15.1 10.05 -60.55 32.2 -60.55 M1.2 -6.6 L-2.65 -13.25 19.95 -27.35 19.95 20.1 9.05 21.2 9.05 -10.35 1.2 -6.6 M-7.1 -27.35 L-7.1 20.1 -18.0 21.2 -18.0 -10.35 -25.85 -6.6 -29.7 -13.25 -7.1 -27.35 M-10.05 60.55 L-32.2 60.55 Q-34.1 60.55 -35.45 59.25 -36.8 57.9 -36.8 56.0 L-36.8 15.1 -10.05 60.55" fill="#d41389" fill-rule="evenodd" stroke="none"/>
    <path d="M16.05 37.2 L16.05 52.6 19.9 50.75 21.8 54.0 10.75 60.95 10.75 37.7 16.05 37.2 M29.25 37.2 L29.25 52.6 33.1 50.75 35.0 54.0 23.95 60.95 23.95 37.7 29.25 37.2 M-35.0 -54.0 L-23.95 -60.9 -23.95 -37.7 -29.25 -37.15 -29.25 -52.55 -33.15 -50.7 -35.0 -54.0 M-10.75 -60.9 L-10.75 -37.7 -16.05 -37.15 -16.05 -52.55 -19.9 -50.7 -21.8 -54.0 -10.75 -60.9" fill="#000000" fill-rule="evenodd" stroke="none"/>
  </g>
</svg>
