<?xml version="1.0" encoding="UTF-8" standalone="no"?>
<svg xmlns:xlink="http://www.w3.org/1999/xlink" height="121.1px" width="73.2px" xmlns="http://www.w3.org/2000/svg">
  <g transform="matrix(1.0, 0.0, 0.0, 1.0, 36.55, 60.55)">
    <path d="M32.1 -60.25 Q33.95 -60.25 35.3 -58.9 36.65 -57.55 36.65 -55.65 L36.65 -15.05 10.0 -60.25 32.1 -60.25 M11.55 -17.2 Q9.15 -17.2 7.5 -15.65 5.85 -14.15 5.9 -11.75 5.85 -9.9 6.95 -8.35 8.05 -6.8 10.0 -6.2 L3.55 2.4 Q-0.55 0.3 -3.0 -3.3 -5.45 -6.95 -5.45 -11.45 -5.45 -18.35 -0.55 -22.75 4.35 -27.2 12.0 -27.2 19.6 -27.2 24.45 -22.85 29.25 -18.45 29.25 -12.0 29.25 -8.6 27.9 -5.3 26.45 -1.9 21.9 3.45 L16.65 9.7 30.6 9.7 27.85 20.0 -5.6 20.0 11.65 -0.65 Q15.15 -4.8 16.3 -7.15 17.35 -9.4 17.4 -11.6 17.35 -14.25 15.65 -15.7 13.9 -17.2 11.55 -17.2 M-30.85 -13.2 L-8.4 -27.2 -8.4 20.0 -19.25 21.1 -19.25 -10.3 -27.0 -6.55 -30.85 -13.2 M-9.95 60.25 L-32.0 60.25 Q-33.9 60.25 -35.25 58.9 -36.6 57.55 -36.55 55.7 L-36.55 15.05 -9.95 60.25" fill="#d41389" fill-rule="evenodd" stroke="none"/>
    <path d="M4.9 42.5 L6.2 37.5 22.55 37.5 14.1 47.55 Q12.3 49.7 11.85 50.75 11.3 51.9 11.3 52.9 11.3 54.2 12.15 54.9 12.95 55.6 14.15 55.65 15.3 55.65 16.15 54.9 16.9 54.15 16.95 53.0 16.9 52.05 16.4 51.3 15.9 50.6 14.9 50.3 L18.05 46.05 Q20.05 47.1 21.3 48.9 22.45 50.55 22.45 52.85 22.45 56.2 20.05 58.35 17.75 60.5 13.95 60.55 10.2 60.55 7.85 58.4 5.55 56.25 5.55 53.15 5.5 51.5 6.2 49.85 6.8 48.25 9.1 45.6 L11.65 42.5 4.9 42.5 M29.15 36.95 L29.15 52.3 33.0 50.45 34.85 53.7 23.9 60.55 23.9 37.5 29.15 36.95 M-23.8 -60.55 L-23.8 -37.5 -29.1 -36.95 -29.1 -52.3 -32.95 -50.45 -34.8 -53.7 -23.8 -60.55 M-16.85 -53.0 Q-16.85 -52.1 -16.3 -51.3 -15.8 -50.55 -14.85 -50.3 L-18.0 -46.05 Q-20.05 -47.1 -21.2 -48.85 -22.4 -50.6 -22.4 -52.85 -22.4 -56.2 -20.0 -58.35 -17.6 -60.55 -13.85 -60.55 -10.1 -60.55 -7.8 -58.35 -5.5 -56.3 -5.45 -53.1 -5.5 -51.55 -6.1 -49.85 -6.8 -48.25 -9.05 -45.55 L-11.6 -42.5 -4.8 -42.5 -6.15 -37.5 -22.5 -37.5 -14.0 -47.55 Q-12.25 -49.65 -11.75 -50.75 -11.25 -51.8 -11.25 -52.9 -11.25 -54.2 -12.05 -54.9 -13.0 -55.65 -14.1 -55.65 -15.25 -55.65 -16.05 -54.9 -16.85 -54.15 -16.85 -53.0" fill="#000000" fill-rule="evenodd" stroke="none"/>
  </g>
</svg>
