<?xml version="1.0" encoding="UTF-8" standalone="no"?>
<svg xmlns:xlink="http://www.w3.org/1999/xlink" height="121.2px" width="74.0px" xmlns="http://www.w3.org/2000/svg">
  <g transform="matrix(1.0, 0.0, 0.0, 1.0, 37.1, 60.6)">
    <path d="M32.0 -60.3 Q33.9 -60.35 35.25 -59.0 36.6 -57.65 36.6 -55.75 L36.6 -15.05 9.9 -60.3 32.0 -60.3 M11.95 -22.9 Q16.7 -18.5 16.7 -12.05 16.7 -8.8 15.3 -5.3 13.95 -2.0 9.35 3.45 L4.1 9.75 18.05 9.75 15.25 20.05 -18.15 20.05 -0.9 -0.65 Q2.65 -4.85 3.75 -7.2 4.85 -9.5 4.85 -11.65 4.85 -14.25 3.1 -15.75 1.35 -17.25 -1.0 -17.2 -3.4 -17.25 -5.05 -15.65 -6.65 -14.1 -6.65 -11.8 -6.65 -9.9 -5.6 -8.35 -4.5 -6.9 -2.55 -6.25 L-9.0 2.4 Q-13.15 0.25 -15.55 -3.3 -18.0 -6.9 -17.95 -11.5 -18.0 -18.4 -13.05 -22.8 -8.2 -27.25 -0.55 -27.25 7.15 -27.25 11.95 -22.9 M-35.45 58.95 Q-36.8 57.6 -36.75 55.7 L-36.75 15.05 -10.05 60.3 -32.1 60.3 Q-34.05 60.3 -35.45 58.95" fill="#27388b" fill-rule="evenodd" stroke="none"/>
    <path d="M-22.35 -58.5 Q-20.05 -56.35 -20.05 -53.2 -20.05 -51.55 -20.7 -49.95 -21.35 -48.35 -23.6 -45.65 L-26.2 -42.55 -19.4 -42.55 -20.7 -37.55 -37.1 -37.55 -28.6 -47.6 Q-26.85 -49.7 -26.35 -50.8 -25.8 -52.0 -25.8 -52.95 -25.8 -54.25 -26.65 -55.0 -27.5 -55.7 -28.65 -55.7 -29.9 -55.7 -30.65 -54.95 -31.45 -54.2 -31.45 -53.05 -31.45 -52.15 -30.9 -51.4 -30.35 -50.65 -29.4 -50.35 L-32.55 -46.15 Q-34.5 -47.15 -35.8 -48.95 -37.0 -50.65 -37.0 -52.95 -37.0 -56.3 -34.55 -58.45 -32.2 -60.6 -28.4 -60.6 -24.7 -60.65 -22.35 -58.5 M20.6 37.55 L36.9 37.55 28.45 47.6 Q26.7 49.7 26.2 50.8 25.65 51.8 25.7 52.95 25.65 54.25 26.5 55.0 27.4 55.7 28.55 55.7 29.65 55.7 30.5 54.95 31.3 54.2 31.3 53.05 31.3 52.1 30.8 51.35 30.25 50.65 29.3 50.35 L32.45 46.15 Q34.45 47.15 35.65 48.9 36.8 50.7 36.8 52.9 36.8 56.25 34.45 58.4 32.05 60.6 28.3 60.6 24.6 60.6 22.25 58.45 19.9 56.35 19.9 53.15 19.9 51.45 20.55 49.9 21.25 48.3 23.5 45.6 L26.05 42.55 19.25 42.55 20.6 37.55" fill="#000000" fill-rule="evenodd" stroke="none"/>
  </g>
</svg>
