<?xml version="1.0" encoding="UTF-8" standalone="no"?>
<svg xmlns:xlink="http://www.w3.org/1999/xlink" height="121.7px" width="78.2px" xmlns="http://www.w3.org/2000/svg">
  <g transform="matrix(1.0, 0.0, 0.0, 1.0, 38.95, 60.85)">
    <path d="M10.1 -60.3 L32.2 -60.3 Q34.1 -60.3 35.5 -58.95 36.8 -57.65 36.8 -55.75 L36.8 -15.05 10.1 -60.3 M13.95 -8.6 Q12.75 -6.3 10.3 -4.55 13.25 -2.95 15.15 -0.2 16.95 2.6 16.95 6.3 16.95 12.45 12.4 16.8 7.85 21.05 -0.5 21.1 -5.4 21.05 -9.65 19.25 -13.8 17.4 -17.1 13.7 L-9.5 6.0 Q-8.05 8.3 -5.8 9.55 -3.6 10.7 -1.0 10.7 1.7 10.7 3.45 9.3 5.15 7.9 5.2 5.55 5.15 3.35 3.6 1.85 1.95 0.35 -1.1 0.4 L-5.9 0.4 -5.9 -7.7 -2.0 -7.7 Q0.6 -7.7 2.3 -9.05 4.0 -10.35 4.05 -12.75 4.05 -14.9 2.55 -16.4 1.05 -17.85 -1.4 -17.8 -3.7 -17.75 -5.7 -16.7 -7.7 -15.6 -8.9 -13.5 L-16.95 -18.1 Q-14.3 -22.5 -10.1 -24.85 -5.85 -27.15 -0.5 -27.25 6.85 -27.25 11.05 -23.3 15.2 -19.4 15.2 -13.7 15.2 -10.9 13.95 -8.6 M-9.85 60.3 L-31.95 60.3 Q-33.85 60.3 -35.2 59.0 -36.55 57.65 -36.55 55.75 L-36.55 15.05 -9.85 60.3" fill="#27388b" fill-rule="evenodd" stroke="none"/>
    <path d="M24.8 39.35 Q27.1 37.25 31.15 37.25 33.5 37.25 35.55 38.15 37.6 39.05 39.25 40.85 L35.55 44.6 Q34.85 43.45 33.75 42.9 32.65 42.3 31.35 42.3 30.05 42.3 29.2 43.0 28.35 43.7 28.35 44.85 28.35 45.95 29.1 46.65 29.85 47.35 31.4 47.35 L33.8 47.35 33.8 51.3 31.85 51.3 Q30.6 51.3 29.75 51.95 28.95 52.55 28.9 53.75 28.9 54.8 29.6 55.5 30.3 56.2 31.55 56.25 32.65 56.2 33.65 55.65 34.6 55.15 35.2 54.15 L39.15 56.35 Q37.85 58.5 35.85 59.65 33.7 60.8 31.1 60.85 27.5 60.85 25.45 58.9 23.45 57.0 23.45 54.25 23.45 52.9 24.05 51.7 24.6 50.6 25.85 49.8 24.4 48.95 23.5 47.6 22.55 46.3 22.6 44.45 22.55 41.45 24.8 39.35 M-35.55 -59.65 Q-33.55 -60.8 -30.85 -60.85 -27.25 -60.85 -25.25 -58.9 -23.2 -57.0 -23.2 -54.2 -23.2 -52.85 -23.8 -51.75 -24.45 -50.65 -25.6 -49.8 -24.15 -49.0 -23.25 -47.6 -22.4 -46.3 -22.35 -44.45 -22.35 -41.45 -24.55 -39.35 -26.9 -37.25 -30.85 -37.25 -33.25 -37.25 -35.3 -38.15 -37.35 -39.05 -38.95 -40.85 L-35.25 -44.6 Q-34.55 -43.5 -33.45 -42.9 -32.35 -42.3 -31.15 -42.3 -29.8 -42.3 -28.95 -43.0 -28.1 -43.7 -28.1 -44.85 -28.1 -45.95 -28.9 -46.6 -29.75 -47.4 -31.15 -47.4 L-33.55 -47.4 -33.55 -51.3 -31.6 -51.3 Q-30.4 -51.3 -29.5 -51.95 -28.7 -52.6 -28.65 -53.75 -28.7 -54.85 -29.4 -55.5 -30.1 -56.25 -31.35 -56.25 L-33.4 -55.65 Q-34.3 -55.2 -35.0 -54.15 L-38.9 -56.35 Q-37.55 -58.55 -35.55 -59.65" fill="#000000" fill-rule="evenodd" stroke="none"/>
  </g>
</svg>
