<?xml version="1.0" encoding="UTF-8" standalone="no"?>
<svg xmlns:xlink="http://www.w3.org/1999/xlink" height="120.6px" width="79.3px" xmlns="http://www.w3.org/2000/svg">
  <g transform="matrix(1.0, 0.0, 0.0, 1.0, 39.65, 60.3)">
    <path d="M-24.95 -60.3 L-24.95 -47.8 -21.8 -47.8 -22.65 -43.25 -24.95 -43.25 -24.95 -37.75 -30.45 -37.3 -30.45 -43.25 -39.65 -43.25 -32.3 -60.3 -24.95 -60.3 M-29.95 -47.8 L-29.95 -55.3 -33.2 -47.8 -29.95 -47.8 M29.9 47.8 L29.9 55.35 33.15 47.8 29.9 47.8 M24.9 43.3 L24.9 37.8 30.4 37.3 30.4 43.3 39.65 43.3 32.25 60.3 24.9 60.3 24.9 47.8 21.8 47.8 22.6 43.3 24.9 43.3" fill="#000000" fill-rule="evenodd" stroke="none"/>
    <path d="M-1.1 -15.95 L-7.75 -0.5 -1.1 -0.5 -1.1 -15.95 M15.55 -0.5 L13.9 8.8 9.15 8.8 9.15 20.05 -2.1 21.0 -2.1 8.8 -21.0 8.8 -5.9 -26.15 9.15 -26.15 9.15 -0.5 15.55 -0.5 M32.05 -60.3 Q33.95 -60.3 35.3 -58.95 36.65 -57.6 36.65 -55.7 L36.65 -15.05 9.95 -60.3 32.05 -60.3 M-32.05 60.3 Q-34.0 60.3 -35.35 59.0 -36.7 57.65 -36.65 55.75 L-36.65 15.05 -10.0 60.3 -32.05 60.3" fill="#27388b" fill-rule="evenodd" stroke="none"/>
  </g>
</svg>
