<?xml version="1.0" encoding="UTF-8" standalone="no"?>
<svg xmlns:xlink="http://www.w3.org/1999/xlink" height="120.7px" width="76.7px" xmlns="http://www.w3.org/2000/svg">
  <g transform="matrix(1.0, 0.0, 0.0, 1.0, 38.35, 60.35)">
    <path d="M-30.6 -53.2 L-30.05 -53.25 -29.3 -53.3 Q-25.95 -53.3 -23.95 -51.0 -22.0 -48.8 -22.0 -45.5 -22.0 -42.1 -24.2 -39.7 -26.5 -37.3 -30.5 -37.3 -32.95 -37.3 -34.95 -38.1 -36.9 -38.95 -38.35 -40.45 L-34.7 -44.45 Q-34.0 -43.55 -33.1 -43.15 -32.2 -42.75 -31.25 -42.7 -29.65 -42.75 -28.7 -43.6 -27.75 -44.45 -27.75 -45.7 -27.75 -47.15 -28.8 -48.0 -29.9 -48.9 -31.5 -48.9 L-33.7 -48.65 -36.0 -47.9 -36.0 -60.35 -23.05 -60.35 -24.5 -55.25 -30.6 -55.25 -30.6 -53.2 M27.75 45.7 Q27.8 47.15 28.8 48.0 29.9 48.9 31.5 48.9 L33.7 48.65 36.0 47.9 36.0 60.35 23.05 60.35 24.5 55.3 30.6 55.3 30.6 53.2 30.05 53.25 29.35 53.3 Q26.0 53.25 24.0 51.05 21.95 48.8 21.95 45.5 21.95 42.15 24.2 39.7 26.5 37.25 30.5 37.3 32.95 37.3 34.9 38.1 36.85 38.95 38.35 40.5 L34.75 44.45 Q33.95 43.5 33.1 43.15 32.15 42.7 31.25 42.7 29.65 42.7 28.7 43.6 27.75 44.4 27.75 45.7" fill="#000000" fill-rule="evenodd" stroke="none"/>
    <path d="M10.35 -15.8 L-2.1 -15.8 -2.1 -11.55 -0.9 -11.65 0.55 -11.7 Q7.4 -11.7 11.5 -7.1 15.6 -2.5 15.6 4.25 15.6 11.1 11.0 16.05 6.35 21.05 -1.8 21.1 -6.85 21.05 -10.95 19.4 -15.0 17.65 -17.95 14.45 L-10.55 6.35 Q-9.05 8.25 -7.2 9.1 -5.35 9.9 -3.4 9.9 -0.15 9.9 1.8 8.15 3.8 6.35 3.8 3.85 3.65 0.8 1.55 -0.9 -0.55 -2.75 -3.9 -2.75 L-8.45 -2.2 Q-10.7 -1.7 -13.1 -0.65 L-13.1 -26.2 13.4 -26.2 10.35 -15.8 M32.0 -60.35 Q33.9 -60.35 35.25 -59.0 36.6 -57.65 36.6 -55.75 L36.6 -15.1 9.9 -60.35 32.0 -60.35 M-35.45 59.0 Q-36.8 57.65 -36.75 55.75 L-36.75 15.05 -10.05 60.35 -32.2 60.35 Q-34.1 60.35 -35.45 59.0" fill="#63b846" fill-rule="evenodd" stroke="none"/>
  </g>
</svg>
