<?xml version="1.0" encoding="UTF-8" standalone="no"?>
<svg xmlns:xlink="http://www.w3.org/1999/xlink" height="121.2px" width="73.6px" xmlns="http://www.w3.org/2000/svg">
  <g transform="matrix(1.0, 0.0, 0.0, 1.0, 36.8, 60.6)">
    <path d="M12.0 -23.95 Q7.65 -20.3 4.55 -17.0 1.35 -13.55 -0.65 -10.4 L1.25 -10.8 3.6 -10.95 Q9.5 -10.95 13.3 -6.55 17.15 -2.15 17.15 4.15 17.15 11.8 12.3 16.45 7.4 21.1 -0.1 21.1 -7.7 21.1 -12.4 16.25 -17.05 11.3 -17.05 3.65 -17.05 -3.5 -12.3 -11.65 -7.55 -19.75 0.6 -27.25 L12.0 -23.95 M-17.15 23.3 L17.05 23.3 17.05 25.45 -17.15 25.45 -17.15 23.3 M0.15 -2.15 Q-2.55 -2.15 -4.4 -0.25 -6.2 1.55 -6.2 4.2 -6.25 7.0 -4.4 8.85 -2.55 10.7 0.15 10.7 2.7 10.7 4.5 8.85 6.3 7.0 6.3 4.2 6.25 1.55 4.5 -0.25 2.75 -2.15 0.15 -2.15 M32.05 -60.3 Q33.95 -60.35 35.3 -59.0 36.65 -57.65 36.65 -55.75 L36.65 -15.05 9.95 -60.3 32.05 -60.3 M-32.1 60.3 Q-34.0 60.3 -35.35 58.95 -36.7 57.6 -36.65 55.7 L-36.65 15.05 -10.0 60.3 -32.1 60.3" fill="#63b846" fill-rule="evenodd" stroke="none"/>
    <path d="M-26.4 -52.65 Q-23.5 -52.7 -21.65 -50.5 -19.8 -48.4 -19.8 -45.3 -19.8 -41.6 -22.15 -39.3 -24.55 -37.0 -28.2 -37.0 -31.9 -37.05 -34.2 -39.4 -36.5 -41.8 -36.45 -45.5 -36.5 -49.05 -34.15 -52.95 -31.9 -56.9 -27.85 -60.6 L-22.3 -59.0 -25.9 -55.65 -28.5 -52.4 -27.55 -52.6 -26.4 -52.65 M-30.25 -47.45 Q-31.2 -46.55 -31.2 -45.25 -31.2 -43.9 -30.25 -43.0 -29.35 -42.05 -28.1 -42.05 -26.85 -42.05 -25.95 -43.0 -25.1 -44.0 -25.05 -45.25 -25.1 -46.6 -25.95 -47.45 -26.8 -48.35 -28.1 -48.35 -29.45 -48.35 -30.25 -47.45 M-36.8 -36.1 L-20.05 -36.1 -20.05 -35.25 -36.8 -35.25 -36.8 -36.1 M22.1 39.25 Q24.5 37.0 28.15 37.0 31.85 37.0 34.15 39.35 36.4 41.75 36.4 45.5 36.4 49.05 34.15 52.95 31.75 56.95 27.85 60.6 L22.3 58.95 25.9 55.6 28.45 52.35 27.5 52.55 26.35 52.65 Q23.5 52.65 21.6 50.5 19.7 48.3 19.75 45.3 19.7 41.55 22.1 39.25 M20.05 35.25 L36.8 35.25 36.8 36.1 20.05 36.1 20.05 35.25 M25.95 47.4 Q26.8 48.3 28.05 48.35 29.35 48.3 30.25 47.4 31.1 46.45 31.15 45.25 31.2 43.9 30.25 43.0 29.35 42.05 28.05 42.05 26.8 42.05 25.95 43.0 25.0 43.9 25.0 45.25 25.1 46.5 25.95 47.4" fill="#000000" fill-rule="evenodd" stroke="none"/>
  </g>
</svg>
