<?xml version="1.0" encoding="UTF-8" standalone="no"?>
<svg xmlns:xlink="http://www.w3.org/1999/xlink" height="120.6px" width="75.2px" xmlns="http://www.w3.org/2000/svg">
  <g transform="matrix(1.0, 0.0, 0.0, 1.0, 37.6, 60.3)">
    <path d="M35.3 -58.95 Q36.65 -57.65 36.65 -55.75 L36.65 -15.05 9.95 -60.3 32.05 -60.3 Q33.95 -60.3 35.3 -58.95 M17.3 -26.2 L2.5 19.5 -10.4 20.55 2.4 -15.8 -16.5 -15.8 -13.9 -26.2 17.3 -26.2 M-35.4 59.0 Q-36.75 57.65 -36.7 55.75 L-36.7 15.05 -10.0 60.3 -32.15 60.3 Q-34.0 60.3 -35.4 59.0" fill="#63b846" fill-rule="evenodd" stroke="none"/>
    <path d="M36.3 60.3 L21.1 60.3 28.3 38.05 34.6 37.5 28.35 55.25 37.6 55.25 36.3 60.3 M-21.05 -60.3 L-28.3 -38.05 -34.6 -37.5 -28.35 -55.25 -37.6 -55.25 -36.3 -60.3 -21.05 -60.3" fill="#000000" fill-rule="evenodd" stroke="none"/>
  </g>
</svg>
