<?xml version="1.0" encoding="UTF-8" standalone="no"?>
<svg xmlns:xlink="http://www.w3.org/1999/xlink" height="122.3px" width="76.5px" xmlns="http://www.w3.org/2000/svg">
  <g transform="matrix(1.0, 0.0, 0.0, 1.0, 38.15, 61.15)">
    <path d="M10.05 -60.65 L32.25 -60.65 Q34.15 -60.7 35.5 -59.35 36.85 -57.95 36.85 -56.05 L36.85 -15.15 10.05 -60.65 M17.0 -9.85 Q17.0 -2.55 12.2 5.6 7.4 13.7 -0.75 21.2 L-12.15 17.9 Q-7.6 13.95 -4.8 10.95 -2.0 8.0 0.55 4.3 L-1.5 4.7 -3.8 4.8 Q-9.75 4.8 -13.55 0.45 -17.4 -3.95 -17.4 -10.35 -17.4 -18.0 -12.55 -22.7 -7.75 -27.4 -0.05 -27.4 7.55 -27.4 12.25 -22.45 17.0 -17.55 17.0 -9.85 M6.1 -10.4 Q6.1 -13.05 4.2 -15.05 2.3 -16.95 -0.25 -16.95 -2.9 -16.95 -4.7 -15.05 -6.5 -13.05 -6.5 -10.4 -6.5 -7.75 -4.75 -5.9 -2.95 -4.05 -0.25 -4.05 2.4 -4.05 4.25 -5.9 6.1 -7.7 6.1 -10.4 M-35.5 59.3 Q-36.85 57.9 -36.85 56.0 L-36.85 15.15 -10.05 60.65 -32.3 60.65 Q-34.2 60.65 -35.5 59.3" fill="#d41389" fill-rule="evenodd" stroke="none"/>
    <path d="M30.25 37.45 L35.8 39.05 Q33.65 40.85 32.25 42.4 30.75 43.95 29.6 45.7 L31.75 45.45 Q34.6 45.4 36.5 47.55 38.35 49.75 38.35 52.85 38.35 56.55 36.0 58.85 33.65 61.15 29.9 61.15 26.15 61.15 23.9 58.75 21.55 56.35 21.55 52.6 21.55 49.1 23.9 45.05 26.2 41.1 30.25 37.45 M32.2 50.65 Q31.35 49.75 30.0 49.75 28.7 49.75 27.8 50.65 26.85 51.55 26.9 52.9 26.85 54.15 27.85 55.15 28.75 56.05 30.0 56.05 31.3 56.05 32.15 55.15 33.05 54.2 33.05 52.9 33.0 51.5 32.2 50.65 M-35.85 -58.85 Q-33.45 -61.15 -29.7 -61.15 -26.0 -61.2 -23.7 -58.75 -21.4 -56.35 -21.4 -52.6 -21.4 -49.05 -23.75 -45.1 -26.0 -41.3 -30.05 -37.45 L-35.65 -39.1 -32.05 -42.45 -29.4 -45.75 -30.4 -45.55 -31.55 -45.45 Q-34.45 -45.45 -36.35 -47.6 -38.2 -49.7 -38.15 -52.85 -38.2 -56.6 -35.85 -58.85 M-32.85 -52.85 Q-32.85 -51.55 -32.0 -50.65 -31.15 -49.8 -29.85 -49.8 -28.6 -49.8 -27.6 -50.65 -26.7 -51.6 -26.7 -52.85 -26.7 -54.2 -27.65 -55.15 -28.6 -56.1 -29.85 -56.1 -31.1 -56.1 -31.95 -55.15 -32.85 -54.25 -32.85 -52.85" fill="#000000" fill-rule="evenodd" stroke="none"/>
  </g>
</svg>
