<?xml version="1.0" encoding="UTF-8" standalone="no"?>
<svg xmlns:xlink="http://www.w3.org/1999/xlink" height="122.9px" width="75.4px" xmlns="http://www.w3.org/2000/svg">
  <g transform="matrix(1.0, 0.0, 0.0, 1.0, 37.3, 61.2)">
    <path d="M36.7 -29.65 L36.7 -15.1 10.1 -60.4 18.65 -60.4 36.7 -29.65 M-18.45 60.3 L-36.55 29.6 -36.55 15.0 -9.9 60.3 -18.45 60.3" fill="#d41389" fill-rule="evenodd" stroke="none"/>
    <path d="M27.2 -60.4 L32.15 -60.4 Q34.05 -60.4 35.4 -59.05 36.7 -57.7 36.7 -55.8 L36.7 -44.2 27.2 -60.4 M17.8 -12.75 Q17.8 -10.95 15.3 -9.75 L15.3 -9.6 Q18.45 -9.0 18.45 -6.55 18.45 -4.7 16.15 -3.4 13.55 -1.9 8.85 -1.85 L6.95 -1.85 7.0 -9.4 6.95 -11.6 6.85 -16.2 13.05 -16.0 Q17.75 -15.45 17.8 -12.75 M11.15 -13.95 L11.15 -10.2 Q11.9 -10.2 12.65 -10.75 13.4 -11.45 13.4 -12.45 13.35 -14.2 11.15 -13.95 M1.2 -5.6 L1.25 -7.7 5.0 -7.7 5.05 -5.65 1.2 -5.6 M11.2 -8.25 L11.2 -4.35 Q12.1 -4.35 13.0 -4.95 13.95 -5.6 13.95 -6.4 13.95 -8.4 11.2 -8.25 M19.45 -5.0 Q18.15 -7.3 18.9 -9.75 19.55 -12.25 21.85 -13.5 24.1 -14.8 26.6 -14.1 29.05 -13.4 30.35 -11.15 31.6 -8.9 30.95 -6.4 30.25 -3.9 28.0 -2.6 25.75 -1.35 23.25 -2.05 20.75 -2.75 19.45 -5.0 M32.1 -13.25 L32.35 -13.25 32.4 -13.1 32.25 -12.95 32.4 -12.8 32.4 -12.6 32.25 -12.6 32.25 -12.8 32.1 -12.9 32.05 -12.9 32.05 -12.6 31.9 -12.6 31.9 -13.25 32.1 -13.25 M32.05 -13.15 L32.05 -12.95 32.1 -12.95 32.25 -13.1 32.1 -13.15 32.05 -13.15 M32.1 -12.45 Q32.6 -12.5 32.6 -12.95 32.6 -13.45 32.1 -13.45 31.65 -13.45 31.65 -12.95 31.65 -12.5 32.1 -12.45 M32.75 -12.95 Q32.75 -12.35 32.1 -12.3 31.5 -12.35 31.5 -12.95 31.5 -13.6 32.1 -13.6 32.75 -13.6 32.75 -12.95 M27.35 -9.3 Q26.75 -10.35 25.6 -10.65 L23.5 -10.4 Q22.45 -9.8 22.15 -8.65 21.8 -7.55 22.4 -6.5 23.0 -5.5 24.1 -5.15 25.25 -4.9 26.25 -5.45 27.25 -6.0 27.6 -7.15 27.9 -8.3 27.35 -9.3 M37.3 11.05 Q37.3 12.85 35.15 14.3 32.9 15.9 29.25 16.25 L28.7 12.9 Q32.45 12.85 32.45 11.65 32.45 11.15 30.5 10.2 27.7 8.9 27.7 7.0 27.65 5.1 29.6 3.6 31.85 1.75 36.05 1.25 L36.6 4.7 Q32.55 4.55 32.6 6.15 32.55 6.55 34.55 7.65 37.25 9.2 37.3 11.05 M22.9 8.2 L18.5 13.85 15.75 11.4 19.25 7.75 15.55 3.9 18.5 1.3 Q20.3 3.35 22.9 7.15 L22.95 7.15 22.85 1.5 26.7 1.5 26.8 13.7 22.9 13.7 22.95 8.65 22.95 8.2 22.9 8.2 M10.85 1.75 L14.7 1.7 14.8 13.6 10.9 13.6 10.95 6.75 10.85 1.75 M5.0 11.3 L4.95 7.1 Q2.7 7.4 2.7 9.45 2.7 11.1 5.0 11.3 M8.65 1.75 L8.65 13.6 2.05 13.25 Q-1.05 12.45 -1.1 9.95 -1.1 8.2 0.45 6.75 2.1 5.2 4.95 4.7 L4.9 1.8 8.65 1.75 M15.2 48.2 Q13.95 49.25 13.95 51.2 13.85 55.75 20.4 55.75 L27.75 55.75 Q33.4 55.75 33.35 51.05 33.4 47.55 29.65 46.2 L27.5 45.45 27.5 45.5 27.05 45.2 26.95 45.1 26.9 45.0 26.9 44.95 26.9 44.85 Q27.05 44.4 28.05 44.4 29.4 44.4 30.2 45.3 L30.55 45.55 31.0 45.55 31.35 45.3 33.5 42.55 33.65 42.0 33.4 41.5 Q31.65 39.95 29.2 39.65 L29.15 39.65 29.1 39.65 28.0 39.6 26.2 39.8 19.5 39.8 Q13.4 39.8 13.5 44.55 13.5 46.95 15.2 48.2 M20.1 44.1 L20.1 45.65 19.95 45.65 Q18.7 45.65 18.6 44.85 18.7 44.1 19.9 44.1 L20.1 44.1 M15.65 39.25 Q18.95 35.9 23.7 35.9 28.4 35.9 31.75 39.25 35.05 42.55 35.1 47.3 35.05 52.0 31.75 55.35 28.4 58.65 23.7 58.7 18.95 58.65 15.65 55.35 12.3 52.0 12.3 47.3 12.3 42.55 15.65 39.25 M28.05 51.3 Q27.95 51.7 27.25 51.7 26.1 51.65 25.3 51.1 L25.25 50.95 25.25 50.1 25.35 50.1 25.4 50.1 27.55 50.85 28.05 51.3 M20.05 51.4 L19.2 51.25 19.05 50.8 19.05 50.75 Q19.05 49.95 19.95 49.95 L20.1 49.95 20.1 51.4 20.05 51.4 M-26.45 -51.2 Q-25.3 -51.15 -24.5 -50.6 L-24.45 -50.4 -24.45 -49.55 -24.5 -49.6 -24.55 -49.6 -26.75 -50.35 Q-27.2 -50.55 -27.25 -50.8 -27.15 -51.2 -26.45 -51.2 M-22.85 -58.15 Q-18.15 -58.15 -14.8 -54.8 -11.5 -51.5 -11.45 -46.75 -11.5 -42.05 -14.8 -38.75 -18.15 -35.4 -22.85 -35.4 -27.6 -35.4 -30.9 -38.75 -34.25 -42.05 -34.25 -46.75 -34.25 -51.5 -30.9 -54.8 -27.6 -58.15 -22.85 -58.15 M-32.55 -50.55 Q-32.6 -47.05 -28.85 -45.7 L-28.8 -45.65 -26.7 -44.95 -26.2 -44.65 -26.1 -44.55 -26.1 -44.45 -26.1 -44.35 Q-26.25 -43.9 -27.25 -43.9 -28.6 -43.9 -29.35 -44.75 L-29.7 -45.0 -30.15 -45.0 -30.5 -44.75 -32.65 -42.0 -32.85 -41.45 -32.6 -40.95 Q-30.85 -39.45 -28.4 -39.15 L-28.3 -39.15 -27.2 -39.1 -25.35 -39.3 -18.7 -39.3 Q-12.6 -39.3 -12.7 -44.05 -12.7 -46.45 -14.35 -47.65 -13.15 -48.75 -13.15 -50.7 -13.05 -55.25 -19.6 -55.25 L-26.95 -55.25 Q-32.6 -55.25 -32.55 -50.55 M-18.35 -50.7 L-18.25 -50.25 Q-18.25 -49.45 -19.15 -49.45 L-19.3 -49.45 -19.3 -50.9 -19.25 -50.9 -18.35 -50.7 M-19.3 -45.15 L-19.15 -45.15 Q-17.9 -45.15 -17.8 -44.35 -17.9 -43.6 -19.1 -43.6 L-19.3 -43.6 -19.3 -45.15 M-22.9 -13.95 L-22.95 -8.9 -22.95 -8.5 -22.9 -8.5 -18.5 -14.05 -15.7 -11.65 -19.2 -8.0 -15.55 -4.15 -18.45 -1.55 -22.9 -7.4 -22.95 -7.4 -22.85 -1.75 -26.7 -1.7 -26.8 -13.9 -22.9 -13.95 M-28.7 -13.1 Q-32.45 -13.15 -32.45 -11.85 -32.45 -11.4 -30.45 -10.45 -27.7 -9.05 -27.7 -7.2 -27.65 -5.35 -29.6 -3.8 -31.85 -2.0 -36.05 -1.5 L-36.6 -4.9 Q-32.55 -4.85 -32.55 -6.35 -32.55 -6.8 -34.55 -7.9 -37.25 -9.5 -37.25 -11.3 -37.3 -13.1 -35.15 -14.55 -32.85 -16.15 -29.25 -16.45 L-28.7 -13.1 M-2.05 -13.45 Q1.05 -12.75 1.1 -10.2 1.1 -8.45 -0.4 -7.05 -2.05 -5.5 -4.95 -5.0 L-4.9 -2.0 -8.6 -2.0 -8.65 -13.85 -2.05 -13.45 M-10.9 -13.85 L-10.95 -7.05 -10.8 -2.0 -14.7 -2.0 -14.75 -13.8 -10.9 -13.85 M-4.95 -11.5 L-4.95 -7.35 Q-2.7 -7.7 -2.7 -9.7 -2.7 -11.35 -4.95 -11.5 M-7.0 9.15 L-6.95 11.35 -6.85 15.95 -13.0 15.75 Q-17.75 15.15 -17.75 12.5 -17.8 10.7 -15.25 9.5 L-15.25 9.4 Q-18.45 8.8 -18.4 6.3 -18.45 4.4 -16.15 3.1 -13.5 1.6 -8.85 1.6 L-6.95 1.6 -7.0 9.15 M-1.2 7.5 L-4.95 7.45 -5.05 5.35 -1.15 5.35 -1.2 7.5 M-13.0 4.7 Q-13.95 5.3 -13.95 6.15 -13.95 8.15 -11.15 8.0 L-11.2 4.1 Q-12.1 4.1 -13.0 4.7 M-13.35 12.25 Q-13.35 13.85 -11.1 13.75 L-11.1 9.95 Q-11.9 9.95 -12.55 10.55 -13.4 11.2 -13.35 12.25 M-27.6 6.9 Q-27.9 8.0 -27.3 9.05 -26.75 10.05 -25.6 10.4 -24.5 10.65 -23.45 10.1 -22.45 9.55 -22.1 8.45 -21.8 7.3 -22.35 6.3 -23.0 5.25 -24.1 4.95 -25.25 4.65 -26.25 5.2 -27.3 5.75 -27.6 6.9 M-19.45 4.75 Q-18.15 7.0 -18.9 9.5 -19.6 12.0 -21.8 13.3 -24.1 14.55 -26.6 13.85 -29.1 13.15 -30.35 10.9 -31.6 8.6 -30.9 6.15 -30.25 3.65 -27.95 2.4 -25.75 1.1 -23.2 1.8 -20.7 2.5 -19.45 4.75 M-32.1 12.75 Q-32.2 12.7 -32.2 12.8 L-32.1 12.95 -32.0 12.95 -32.0 12.75 -32.1 12.75 M-32.0 12.65 L-32.0 12.4 -31.85 12.4 -31.85 13.0 -32.1 13.0 -32.35 12.95 -32.4 12.85 -32.25 12.7 -32.35 12.55 -32.4 12.4 -32.25 12.4 -32.2 12.55 -32.1 12.65 -32.0 12.65 M-32.75 12.7 Q-32.75 12.1 -32.1 12.1 -31.5 12.1 -31.5 12.7 -31.5 13.3 -32.1 13.3 -32.75 13.3 -32.75 12.7 M-32.1 13.2 Q-31.65 13.2 -31.65 12.7 -31.65 12.2 -32.1 12.2 -32.6 12.2 -32.6 12.7 -32.6 13.2 -32.1 13.2 M-36.55 44.15 L-27.05 60.3 -32.0 60.3 Q-33.85 60.3 -35.2 59.0 -36.55 57.65 -36.55 55.75 L-36.55 44.15" fill="#27388b" fill-rule="evenodd" stroke="none"/>
    <path d="M27.2 -60.4 L36.7 -44.2 36.7 -29.65 18.65 -60.4 27.2 -60.4 M-36.55 44.15 L-36.55 29.6 -18.45 60.3 -27.05 60.3 -36.55 44.15" fill="#63b846" fill-rule="evenodd" stroke="none"/>
    <path d="M14.8 38.4 Q18.5 34.65 23.7 34.65 28.9 34.65 32.65 38.4 36.3 42.05 36.3 47.3 36.3 52.55 32.65 56.25 L32.65 56.2 Q28.9 59.9 23.7 59.9 18.45 59.9 14.8 56.25 L14.8 56.2 Q11.05 52.5 11.05 47.3 11.05 42.1 14.8 38.4 M17.35 48.1 L17.25 47.7 16.9 47.4 Q15.0 46.65 15.0 44.55 15.1 41.3 19.5 41.3 L23.25 41.25 Q21.65 42.7 21.6 45.1 L21.6 43.35 21.4 42.85 20.85 42.6 19.9 42.6 Q17.0 42.6 17.1 44.85 17.0 47.15 19.95 47.15 L20.85 47.15 21.4 46.95 21.6 46.4 21.6 45.35 Q21.65 47.9 23.75 49.35 L23.75 50.95 23.8 51.2 23.95 51.8 24.2 52.15 Q25.4 53.15 27.25 53.2 29.65 53.2 29.55 51.3 29.65 50.15 28.1 49.5 L28.05 49.45 25.85 48.7 25.9 48.7 24.9 48.25 Q23.1 47.2 23.1 45.2 23.1 43.25 24.5 42.15 L24.55 42.15 Q25.35 41.5 26.4 41.3 L26.65 41.2 29.0 41.15 Q30.6 41.35 31.85 42.2 L30.7 43.7 Q29.65 42.9 28.05 42.9 25.5 42.9 25.4 44.65 L25.4 44.7 25.35 44.85 25.4 45.4 25.5 45.55 26.0 46.25 26.9 46.85 29.2 47.65 29.15 47.6 Q31.8 48.55 31.85 51.05 31.8 54.25 27.75 54.25 L20.4 54.25 Q15.55 54.25 15.45 51.2 15.45 49.5 16.9 48.85 L17.25 48.55 17.35 48.15 17.35 48.1 M15.65 39.25 Q12.3 42.55 12.3 47.3 12.3 52.0 15.65 55.35 18.95 58.65 23.7 58.7 28.4 58.65 31.75 55.35 35.05 52.0 35.1 47.3 35.05 42.55 31.75 39.25 28.4 35.9 23.7 35.9 18.95 35.9 15.65 39.25 M20.85 48.45 L19.95 48.45 Q17.55 48.45 17.55 50.75 17.5 51.85 18.25 52.4 18.85 52.9 20.05 52.9 L20.85 52.9 21.4 52.7 21.6 52.15 21.6 49.2 21.4 48.7 20.85 48.45 M-31.8 -55.7 Q-28.1 -59.4 -22.9 -59.4 -17.65 -59.4 -13.95 -55.7 -10.25 -52.0 -10.25 -46.8 -10.25 -41.6 -13.95 -37.9 L-14.0 -37.85 Q-17.7 -34.15 -22.9 -34.15 -28.1 -34.15 -31.8 -37.85 -35.5 -41.55 -35.5 -46.8 -35.5 -52.05 -31.8 -55.7 M-26.45 -52.7 Q-28.85 -52.7 -28.75 -50.8 -28.85 -49.65 -27.3 -48.95 L-27.25 -48.95 -25.0 -48.2 -25.05 -48.2 -24.05 -47.75 Q-22.3 -46.7 -22.3 -44.7 -22.3 -42.75 -23.7 -41.65 -24.55 -41.0 -25.6 -40.75 L-25.85 -40.7 -28.15 -40.65 Q-29.8 -40.85 -31.05 -41.7 L-29.85 -43.2 Q-28.85 -42.4 -27.25 -42.4 -24.7 -42.4 -24.6 -44.15 L-24.55 -44.3 -24.55 -44.85 -24.7 -45.05 -25.15 -45.7 Q-25.5 -46.05 -26.1 -46.3 L-26.1 -46.35 -28.35 -47.1 Q-31.0 -48.05 -31.05 -50.55 -31.0 -53.75 -26.95 -53.75 L-19.6 -53.75 Q-14.75 -53.75 -14.65 -50.7 -14.65 -49.0 -16.1 -48.3 L-16.4 -48.05 -16.55 -47.65 -16.55 -47.6 -16.4 -47.15 -16.05 -46.9 Q-14.2 -46.15 -14.2 -44.05 -14.3 -40.8 -18.7 -40.8 L-22.45 -40.75 Q-20.85 -42.2 -20.8 -44.55 L-20.8 -42.85 -20.55 -42.3 -20.05 -42.1 -19.1 -42.1 Q-16.2 -42.1 -16.3 -44.35 -16.2 -46.65 -19.15 -46.65 L-20.05 -46.65 -20.55 -46.4 -20.8 -45.9 -20.8 -44.85 Q-20.85 -47.4 -22.95 -48.8 L-22.95 -50.45 -23.0 -50.65 -23.15 -51.25 -23.35 -51.6 Q-24.6 -52.65 -26.4 -52.7 L-26.45 -52.7 M-20.8 -51.65 L-20.8 -48.7 -20.55 -48.15 -20.05 -47.95 -19.15 -47.95 Q-16.75 -47.95 -16.75 -50.2 L-16.75 -50.25 Q-16.7 -51.35 -17.45 -51.85 -18.05 -52.4 -19.25 -52.4 L-20.05 -52.4 -20.55 -52.15 -20.8 -51.65 M-22.85 -58.15 Q-27.6 -58.15 -30.9 -54.8 -34.25 -51.5 -34.25 -46.75 -34.25 -42.05 -30.9 -38.75 -27.6 -35.4 -22.85 -35.4 -18.15 -35.4 -14.8 -38.75 -11.5 -42.05 -11.45 -46.75 -11.5 -51.5 -14.8 -54.8 -18.15 -58.15 -22.85 -58.15" fill="#ed4d48" fill-rule="evenodd" stroke="none"/>
    <path d="M14.8 38.4 Q11.05 42.1 11.05 47.3 11.05 52.5 14.8 56.2 L14.8 56.25 Q18.45 59.9 23.7 59.9 28.9 59.9 32.65 56.2 L32.65 56.25 Q36.3 52.55 36.3 47.3 36.3 42.05 32.65 38.4 28.9 34.65 23.7 34.65 18.5 34.65 14.8 38.4 M20.1 44.1 L19.9 44.1 Q18.7 44.1 18.6 44.85 18.7 45.65 19.95 45.65 L20.1 45.65 20.1 44.1 M15.2 48.2 Q13.5 46.95 13.5 44.55 13.4 39.8 19.5 39.8 L26.2 39.8 28.0 39.6 29.1 39.65 29.15 39.65 29.2 39.65 Q31.65 39.95 33.4 41.5 L33.65 42.0 33.5 42.55 31.35 45.3 31.0 45.55 30.55 45.55 30.2 45.3 Q29.4 44.4 28.05 44.4 27.05 44.4 26.9 44.85 L26.9 44.95 26.9 45.0 26.95 45.1 27.05 45.2 27.5 45.5 27.5 45.45 29.65 46.2 Q33.4 47.55 33.35 51.05 33.4 55.75 27.75 55.75 L20.4 55.75 Q13.85 55.75 13.95 51.2 13.95 49.25 15.2 48.2 M17.35 48.1 L17.35 48.15 17.25 48.55 16.9 48.85 Q15.45 49.5 15.45 51.2 15.55 54.25 20.4 54.25 L27.75 54.25 Q31.8 54.25 31.85 51.05 31.8 48.55 29.15 47.6 L29.2 47.65 26.9 46.85 26.0 46.25 25.5 45.55 25.4 45.4 25.35 44.85 25.4 44.7 25.4 44.65 Q25.5 42.9 28.05 42.9 29.65 42.9 30.7 43.7 L31.85 42.2 Q30.6 41.35 29.0 41.15 L26.65 41.2 26.4 41.3 Q25.35 41.5 24.55 42.15 L24.5 42.15 Q23.1 43.25 23.1 45.2 23.1 47.2 24.9 48.25 L25.9 48.7 25.85 48.7 28.05 49.45 28.1 49.5 Q29.65 50.15 29.55 51.3 29.65 53.2 27.25 53.2 25.4 53.15 24.2 52.15 L23.95 51.8 23.8 51.2 23.75 50.95 23.75 49.35 Q21.65 47.9 21.6 45.35 L21.6 46.4 21.4 46.95 20.85 47.15 19.95 47.15 Q17.0 47.15 17.1 44.85 17.0 42.6 19.9 42.6 L20.85 42.6 21.4 42.85 21.6 43.35 21.6 45.1 Q21.65 42.7 23.25 41.25 L19.5 41.3 Q15.1 41.3 15.0 44.55 15.0 46.65 16.9 47.4 L17.25 47.7 17.35 48.1 M13.5 37.15 L13.55 37.1 Q17.75 32.85 23.7 32.85 29.6 32.85 33.9 37.15 38.1 41.35 38.1 47.3 38.1 53.25 33.9 57.5 29.6 61.7 23.7 61.7 17.75 61.7 13.55 57.5 9.25 53.3 9.25 47.3 9.25 41.35 13.5 37.15 M20.85 48.45 L21.4 48.7 21.6 49.2 21.6 52.15 21.4 52.7 20.85 52.9 20.05 52.9 Q18.85 52.9 18.25 52.4 17.5 51.85 17.55 50.75 17.55 48.45 19.95 48.45 L20.85 48.45 M20.05 51.4 L20.1 51.4 20.1 49.95 19.95 49.95 Q19.05 49.95 19.05 50.75 L19.05 50.8 19.2 51.25 20.05 51.4 M28.05 51.3 L27.55 50.85 25.4 50.1 25.35 50.1 25.25 50.1 25.25 50.95 25.3 51.1 Q26.1 51.65 27.25 51.7 27.95 51.7 28.05 51.3 M-33.05 -56.95 L-33.05 -57.0 Q-28.8 -61.2 -22.9 -61.2 -16.95 -61.2 -12.7 -56.95 L-12.7 -57.0 Q-8.45 -52.8 -8.45 -46.8 -8.45 -40.85 -12.7 -36.6 -16.95 -32.35 -22.9 -32.35 -28.8 -32.35 -33.05 -36.6 -37.3 -40.85 -37.3 -46.8 -37.3 -52.75 -33.05 -56.95 M-31.8 -55.7 Q-35.5 -52.05 -35.5 -46.8 -35.5 -41.55 -31.8 -37.85 -28.1 -34.15 -22.9 -34.15 -17.7 -34.15 -14.0 -37.85 L-13.95 -37.9 Q-10.25 -41.6 -10.25 -46.8 -10.25 -52.0 -13.95 -55.7 -17.65 -59.4 -22.9 -59.4 -28.1 -59.4 -31.8 -55.7 M-26.45 -51.2 Q-27.15 -51.2 -27.25 -50.8 -27.2 -50.55 -26.75 -50.35 L-24.55 -49.6 -24.5 -49.6 -24.45 -49.55 -24.45 -50.4 -24.5 -50.6 Q-25.3 -51.15 -26.45 -51.2 M-20.8 -51.65 L-20.55 -52.15 -20.05 -52.4 -19.25 -52.4 Q-18.05 -52.4 -17.45 -51.85 -16.7 -51.35 -16.75 -50.25 L-16.75 -50.2 Q-16.75 -47.95 -19.15 -47.95 L-20.05 -47.95 -20.55 -48.15 -20.8 -48.7 -20.8 -51.65 M-26.45 -52.7 L-26.4 -52.7 Q-24.6 -52.65 -23.35 -51.6 L-23.15 -51.25 -23.0 -50.65 -22.95 -50.45 -22.95 -48.8 Q-20.85 -47.4 -20.8 -44.85 L-20.8 -45.9 -20.55 -46.4 -20.05 -46.65 -19.15 -46.65 Q-16.2 -46.65 -16.3 -44.35 -16.2 -42.1 -19.1 -42.1 L-20.05 -42.1 -20.55 -42.3 -20.8 -42.85 -20.8 -44.55 Q-20.85 -42.2 -22.45 -40.75 L-18.7 -40.8 Q-14.3 -40.8 -14.2 -44.05 -14.2 -46.15 -16.05 -46.9 L-16.4 -47.15 -16.55 -47.6 -16.55 -47.65 -16.4 -48.05 -16.1 -48.3 Q-14.65 -49.0 -14.65 -50.7 -14.75 -53.75 -19.6 -53.75 L-26.95 -53.75 Q-31.0 -53.75 -31.05 -50.55 -31.0 -48.05 -28.35 -47.1 L-26.1 -46.35 -26.1 -46.3 Q-25.5 -46.05 -25.15 -45.7 L-24.7 -45.05 -24.55 -44.85 -24.55 -44.3 -24.6 -44.15 Q-24.7 -42.4 -27.25 -42.4 -28.85 -42.4 -29.85 -43.2 L-31.05 -41.7 Q-29.8 -40.85 -28.15 -40.65 L-25.85 -40.7 -25.6 -40.75 Q-24.55 -41.0 -23.7 -41.65 -22.3 -42.75 -22.3 -44.7 -22.3 -46.7 -24.05 -47.75 L-25.05 -48.2 -25.0 -48.2 -27.25 -48.95 -27.3 -48.95 Q-28.85 -49.65 -28.75 -50.8 -28.85 -52.7 -26.45 -52.7 M-19.3 -45.15 L-19.3 -43.6 -19.1 -43.6 Q-17.9 -43.6 -17.8 -44.35 -17.9 -45.15 -19.15 -45.15 L-19.3 -45.15 M-18.35 -50.7 L-19.25 -50.9 -19.3 -50.9 -19.3 -49.45 -19.15 -49.45 Q-18.25 -49.45 -18.25 -50.25 L-18.35 -50.7 M-32.55 -50.55 Q-32.6 -55.25 -26.95 -55.25 L-19.6 -55.25 Q-13.05 -55.25 -13.15 -50.7 -13.15 -48.75 -14.35 -47.65 -12.7 -46.45 -12.7 -44.05 -12.6 -39.3 -18.7 -39.3 L-25.35 -39.3 -27.2 -39.1 -28.3 -39.15 -28.4 -39.15 Q-30.85 -39.45 -32.6 -40.95 L-32.85 -41.45 -32.65 -42.0 -30.5 -44.75 -30.15 -45.0 -29.7 -45.0 -29.35 -44.75 Q-28.6 -43.9 -27.25 -43.9 -26.25 -43.9 -26.1 -44.35 L-26.1 -44.45 -26.1 -44.55 -26.2 -44.65 -26.7 -44.95 -28.8 -45.65 -28.85 -45.7 Q-32.6 -47.05 -32.55 -50.55" fill="#ffffff" fill-rule="evenodd" stroke="none"/>
  </g>
</svg>
